<?xml version="1.0" encoding="UTF-8"?>
<!DOCTYPE svg PUBLIC "-//W3C//DTD SVG 1.1//EN" "http://www.w3.org/Graphics/SVG/1.1/DTD/svg11.dtd">
<!-- Creator: CorelDRAW -->
<svg xmlns="http://www.w3.org/2000/svg" xml:space="preserve" width="209.942mm" height="63.0548mm" version="1.1" style="shape-rendering:geometricPrecision; text-rendering:geometricPrecision; image-rendering:optimizeQuality; fill-rule:evenodd; clip-rule:evenodd"
viewBox="0 0 85671.2 25730.88"
 xmlns:xlink="http://www.w3.org/1999/xlink"
 xmlns:xodm="http://www.corel.com/coreldraw/odm/2003">
 <defs>
  <style type="text/css">
   <![CDATA[
    .fil1 {fill:#2B2A29}
    .fil0 {fill:#2B2A29;fill-rule:nonzero}
   ]]>
  </style>
 </defs>
 <g id="Слой_x0020_1">
  <metadata id="CorelCorpID_0Corel-Layer"/>
  <g id="_2597776437136">
   <path class="fil0" d="M23538.44 16723.39c0,1678.4 273.49,2987.66 820.43,3927.69 546.94,940.07 1298.97,1411.81 2252.72,1411.81 960.56,0 1712.6,-471.73 2259.53,-1411.81 546.94,-940.03 820.43,-2249.29 820.43,-3927.69 0,-1675.01 -273.49,-2980.84 -817,-3917.45 -543.51,-940.07 -1298.97,-1408.38 -2262.96,-1408.38 -960.56,0 -1712.6,468.3 -2256.15,1408.38 -543.51,936.61 -817,2242.44 -817,3917.45zm3073.15 -6987.17c926.36,0 1815.14,150.42 2666.34,454.63 854.58,304.26 1586.09,734.98 2201.42,1288.73 741.79,659.77 1302.4,1435.72 1681.83,2327.93 379.47,888.78 570.89,1869.87 570.89,2936.4 0,1063.11 -191.43,2037.34 -577.71,2919.26 -382.85,885.35 -940.07,1657.91 -1675.01,2317.68 -622.15,553.75 -1353.7,984.47 -2201.42,1288.73 -844.34,304.22 -1733.12,454.63 -2666.34,454.63 -929.79,0 -1818.57,-153.84 -2666.34,-461.49 -847.77,-307.65 -1579.28,-734.94 -2194.61,-1281.88 -745.18,-673.44 -1309.22,-1452.82 -1685.25,-2341.6 -379.43,-888.78 -567.46,-1866.44 -567.46,-2932.98 0,-1049.44 191.47,-2020.24 577.71,-2915.88 382.89,-892.21 940.07,-1671.58 1675.01,-2331.31 608.48,-546.94 1336.6,-970.84 2184.37,-1271.63 847.73,-300.83 1739.94,-451.25 2676.58,-451.25z"/>
   <polygon class="fil0" points="34394.53,23426.83 34394.53,10033.63 38147.9,10033.63 38147.9,21621.93 43008.81,21621.93 43008.81,23426.83 "/>
   <polygon class="fil0" points="43975.45,23426.83 43975.45,11838.53 40406.7,11838.53 40406.7,10033.63 51297.64,10033.63 51297.64,11838.53 47728.85,11838.53 47728.85,23426.83 "/>
   <polygon class="fil0" points="51837.68,23426.83 51837.68,10033.63 60226.37,10033.63 60226.37,11838.53 55591.05,11838.53 55591.05,15735.49 59980.23,15735.49 59980.23,17540.39 55591.05,17540.39 55591.05,21621.93 60472.48,21621.93 60472.48,23426.83 "/>
   <path class="fil0" d="M61012.52 23426.83l0 -13393.2 5842 0c1681.83,0 3001.33,365.75 3961.89,1097.3 957.13,731.51 1435.72,1729.69 1435.72,2997.9 0,926.4 -259.78,1688.68 -782.8,2276.63 -519.6,591.42 -1298.97,1011.85 -2334.74,1257.96l3237.19 5763.4 -4194.37 0 -3267.96 -6809.41 840.91 0c929.83,0 1620.33,-198.24 2071.54,-598.19 451.25,-396.56 676.87,-998.18 676.87,-1808.33 0,-854.58 -232.48,-1487.01 -700.78,-1900.64 -468.3,-410.19 -1196.43,-615.29 -2187.75,-615.29l-946.89 0 0 11731.86 -3650.81 0z"/>
   <path class="fil0" d="M76359.53 17766.02l3305.59 0 -1733.12 -4799.41 -1572.46 4799.41zm-3814.9 5660.81l4597.7 -13393.2 3623.51 0 4905.35 13393.2 -3985.84 0 -1411.77 -3958.5 -4495.16 0 -1329.78 3958.5 -1904.02 0z"/>
  </g>
  <g id="_2597776442944">
   <path class="fil1" d="M7412.46 14127.4c899.47,-1.51 5113.47,-80.19 5626.45,7.63 -89.33,443.04 -364.78,1013.57 -537.35,1456.61 -521.6,1338.76 -3890.68,9457.96 -4038.28,10139.24 427.62,-376.53 2920.37,-3476.89 3209.93,-3838.94l3181.61 -3945.97c1051.27,-1301.38 2081.33,-2668.42 3129.67,-3944.54 375.47,-457.04 3116.32,-3732.47 3172.15,-3945.69 -2184.45,-86.84 -4481.53,-32.03 -6682.79,-29.67 172,-889.39 3628,-9632.78 3705.94,-10026.08l-10114.79 13199.57c-153.39,197.34 -608.35,727.96 -652.55,927.83z"/>
   <path class="fil1" d="M8523.27 23557.25c92.18,-340.98 279.16,-761.87 415.34,-1086.7l1318.4 -3267.15c137.4,-343.23 857.97,-1936.34 828.06,-2169.39 -25.75,-200.4 -775.58,-1934.95 -920.12,-2173.59l-3425.68 -1.55c-309.11,-0.2 -534.74,42.52 -751.95,-134.01 -5.59,-296.14 2482.1,-3273.06 2672.99,-3585.16 168.04,-274.71 -333.56,-1185.45 -463.61,-1498.52 -238.4,-573.95 -2268.92,-5363.41 -2564.08,-5832.65l-5632.61 1.59c32.85,279.57 352.25,901.02 486.38,1219.24l1574.46 3732.71c899.96,2291.65 2187.92,5050.26 3179.21,7431.15 860.62,2067.01 1820.37,4123.28 2684.3,6151.64l566.89 1175.82c7.3,9.18 20.61,25.1 32.03,36.56z"/>
  </g>
 </g>
</svg>
