<?xml version="1.0" encoding="UTF-8"?>
<!DOCTYPE svg PUBLIC "-//W3C//DTD SVG 1.1//EN" "http://www.w3.org/Graphics/SVG/1.1/DTD/svg11.dtd">
<!-- Creator: CorelDRAW -->
<svg xmlns="http://www.w3.org/2000/svg" xml:space="preserve" width="166.031mm" height="201.928mm" version="1.1" style="shape-rendering:geometricPrecision; text-rendering:geometricPrecision; image-rendering:optimizeQuality; fill-rule:evenodd; clip-rule:evenodd"
viewBox="0 0 3753.29 4564.78"
 xmlns:xlink="http://www.w3.org/1999/xlink"
 xmlns:xodm="http://www.corel.com/coreldraw/odm/2003">
 <defs>
  <style type="text/css">
   <![CDATA[
    .fil0 {fill:#2B2A29}
   ]]>
  </style>
 </defs>
 <g id="Слой_x0020_1">
  <metadata id="CorelCorpID_0Corel-Layer"/>
  <g id="_2597599837536">
   <path class="fil0" d="M1315.01 2506.27c159.57,-0.27 907.15,-14.23 998.15,1.35 -15.85,78.6 -64.71,179.82 -95.33,258.42 -92.53,237.5 -690.22,1677.89 -716.4,1798.75 75.86,-66.8 518.08,-616.82 569.45,-681.04l564.43 -700.03c186.51,-230.87 369.24,-473.4 555.22,-699.79 66.6,-81.08 552.85,-662.15 562.75,-699.98 -387.54,-15.41 -795.04,-5.68 -1185.56,-5.26 30.51,-157.78 643.63,-1708.9 657.45,-1778.67l-1794.41 2341.66c-27.21,35.01 -107.93,129.14 -115.77,164.61z"/>
   <path class="fil0" d="M1512.07 4179.17c16.36,-60.49 49.53,-135.16 73.69,-192.79l233.89 -579.61c24.37,-60.89 152.2,-343.52 146.9,-384.86 -4.56,-35.55 -137.59,-343.28 -163.23,-385.61l-607.73 -0.27c-54.84,-0.04 -94.86,7.54 -133.4,-23.78 -1,-52.53 440.33,-580.66 474.2,-636.02 29.81,-48.74 -59.17,-210.3 -82.24,-265.85 -42.29,-101.82 -402.52,-951.49 -454.88,-1034.73l-999.25 0.28c5.83,49.6 62.49,159.85 86.28,216.3l279.32 662.2c159.66,406.55 388.15,895.94 564.01,1318.32 152.68,366.7 322.94,731.49 476.21,1091.33l100.57 208.6c1.3,1.63 3.66,4.45 5.68,6.49z"/>
  </g>
 </g>
</svg>
